<?xml version="1.0" encoding="UTF-8"?>
<svg version="1.1" viewBox="0 0 2048 1267" width="635" height="393" xmlns="http://www.w3.org/2000/svg">
<path transform="translate(385,326)" d="m0 0h177l7 2 9 8 7 14 8 24 8 19 1 1 203 1 8 2 6 4 6 7 2 6 1 41v29l-1 1h-50v-39h-200l-8-2-6-7-8-15-7-18-5-17-3-9h-130l-16 40-8 19-8 7-9 2h-199v356h607v-42h50v75l-4 8-8 7-10 3-86 1h-411l-168-1-8-3-7-7-4-6-1-5v-418l4-8 9-9 5-2h209l3-10 11-27 9-23 7-6z" fill="#222021"/>
<path transform="translate(478,507)" d="m0 0h22l19 3 16 5 10 4 8 5 10 5 13 13 5 3-1 4-13 13-11 9-7 7-3-1-5-6-10-7-17-8-12-3h-21l-16 4-16 7-3 1-2 4-5 4-1 2h-2l-2 4-5 7-7 20-2 14v9l3 16 6 17 8 11 7 7 16 9 14 5 5 1h24l14-4 10-5 8-5 8-6 4-5 4 2 10 9 8 7 9 9 3 2-1 4-8 7-9 9-23 12-22 7-22 3h-15l-17-2-16-4-19-8-7-4-9-5-7-7-11-9-8-11-6-10-8-15-4-13-2-18v-20l2-20 3-10 9-19 4-5 6-11 13-12 5-4 5-5 23-12 17-6 15-3z" fill="#222021"/>
<path transform="translate(924,542)" d="m0 0h24l4 4 13 21 7 13 10 15 8 15 11 17 9 16 6 9 4-5 9-17 9-14 8-15 11-17 5-8 6-12 12-19 3-3h24l1 1v167l-1 1h-27l-1-1-1-108-3 3-9 15-9 16-10 15-8 15-9 14-7 11-6 1h-8l-6-9-14-22-6-10-5-9-9-14-10-18-5-7-2-1v109h-28l-1-167z" fill="#222021"/>
<path transform="translate(1451,542)" d="m0 0h75l22 2 13 4 14 10 7 7 6 10 5 15v24l-4 12-8 14-11 9-10 6 1 5 12 17 18 26 6 8h-34l-9-11-12-17-12-18-2-2h-45l-1 48h-30l-1-1zm32 25-1 2v67h45l13-3 9-5 7-5 4-7 1-4v-22l-3-6-5-6-9-6-13-4-11-1z" fill="#222021"/>
<path transform="translate(1223,542)" d="m0 0h121l1 1v23l-1 1h-91v45h83v25l-1 1h-82v46h95l1 4-1 22-1 1h-124l-1-2v-166z" fill="#232122"/>
<path transform="translate(726,542)" d="m0 0h32l6 12 10 24 10 21 8 19 11 22 7 18 12 24 7 18 4 8v3h-31l-6-10-12-27v-2l-85 1-9 20-7 18h-34l9-19 7-15 5-13 11-23 3-6 4-11 15-31 8-20 13-27zm15 33-14 29-5 15-12 25v2h62l-2-6-7-19-9-20-7-15-4-11z" fill="#232122"/>
<path transform="translate(1748,542)" d="m0 0h31l3 5 12 25 10 24 13 26 8 20 13 28 6 15 12 23v3h-33l-4-8-6-15-8-16h-85l-2 9-11 24-4 6h-31l2-5 5-12 4-10 15-31 5-13 11-24 5-12 8-18 8-16 6-15 4-9zm14 32-3 8-18 42-7 18-1 4h62l-2-5-12-28-6-16-10-20z" fill="#232122"/>
<path transform="translate(174,335)" d="m0 0h92l25 1v41l-2 1h-114l-1-1-1-33z" fill="#232122"/>
<path transform="translate(645,471)" d="m0 0h9l8 3 7 8 4 10-1 9-5 9-7 6-7 2h-7l-8-3-7-6-4-7-1-8 2-9 4-6 8-6z" fill="#232122"/>
<path transform="translate(1298,781)" d="m0 0h17l10 4 8 8 5 10 1 11-3 9-6 9-8 6-7 3h-17l-8-3-8-7-6-11-1-4v-10l4-11 6-8 6-4zm8 6-9 2-6 4-6 7-2 4v15l4 6 8 7 6 2h12l8-4 6-8 2-6v-10l-4-9-4-5-7-4z" fill="#585657"/>
<path transform="translate(1130,781)" d="m0 0h16l10 3 7 6 7 14v13l-4 10-9 10-10 4h-17l-7-3-8-6-6-9-2-6v-13l6-12 9-8zm6 6-9 3-5 4-6 12v11l4 8 9 8 4 1h12l8-4 7-7 2-5v-14l-4-7-8-7-9-3z" fill="#585657"/>
<path transform="translate(1463,781)" d="m0 0h27l10 2 6 5 4 7v13l-4 7-5 5h-2l5 10 6 8v3h-7l-7-10-5-8-19-1-1 19h-8l-1-1v-58zm8 7v28h20l7-3 3-4 1-3v-8l-3-6-4-3-3-1z" fill="#585657"/>
<path transform="translate(1064,781)" d="m0 0h6l1 1v59h-7l-1-1v-23l1-2h-35l-1 1v18l-1 7h-6l-1-1v-58h8v25l34-1 1-24z" fill="#595758"/>
<path transform="translate(1718,781)" d="m0 0h6l2 1v24h33l1-25 8 1v58l-1 1h-7v-26h-35v26h-7z" fill="#585657"/>
<path transform="translate(936,781)" d="m0 0h26l11 2 7 5 3 6 1 10-3 10-5 5-6 2-10 1h-15l-1 18-1 1h-7l-1-40v-19zm8 7v28h18l8-3 4-4 1-3v-8l-3-5-5-4-3-1z" fill="#585657"/>
<path transform="translate(1392,781)" d="m0 0h18l9 3 3 4v5l-3 2-8-5-3-1h-14l-8 4-4 5-3 9v8l3 9 8 7 6 2h12l6-3 1-2 1-17 6-1 1 1v21l-2 4-7 4-4 1h-19l-10-5-7-8-4-8-1-4v-10l4-11 9-10 6-3z" fill="#585657"/>
<path transform="translate(1567,781)" d="m0 0h7l3 4 8 21 10 20 6 13-1 2h-7l-5-8-3-7-31-1-2 6-5 10h-6l-1-3 4-12 10-19 8-19 2-5zm2 10-3 5-9 23v1h25l-2-9-8-18z" fill="#575556"/>
<path transform="translate(1633,781)" d="m0 0h25l12 2 6 4 4 7v15l-3 6-6 5-15 2h-15l-1 19h-6l-1-1zm8 7-1 1v26l1 1h19l7-3 5-5 1-8-3-7-6-4-3-1z" fill="#585657"/>
<path transform="translate(1801,781)" d="m0 0h7l4 2 12 23 3 5h2l8-12 7-14 5-4h6l-2 5-14 23-6 12-1 19-1 1h-6l-1-1-1-11v-7l-5-12-13-20-4-6z" fill="#575556"/>
<path transform="translate(1200,781)" d="m0 0h46l1 1v5l-1 1-19 1-1 51-1 1h-5l-1-1v-52h-20v-6z" fill="#585657"/>
</svg>
